<svg version="1.0" xmlns="http://www.w3.org/2000/svg" width="682.667" height="682.667" viewBox="0 0 512 512"><path d="M299.2 36.7c8.1 16.1 9.8 22.5 8.1 30.5-.6 2.9-1.4 6.1-1.8 7-.5 1.3.2 2.3 2.9 3.9 2.8 1.6 3.6 2.7 3.6 5 0 5.7 7.7 10.2 17.5 10.2 6.4.1 23.1-2 27.1-3.3 2.6-.9 4.2-.5 12.5 3.4l9.4 4.4.9-5.1c2-12.3-3.5-27.9-13.4-37.6-9.5-9.4-22.1-15-39.8-17.6-10.2-1.6-27.6-2-27-.8zM228 87c-23.1 3.9-41 15.2-57.2 35.9-2.9 3.6-8 9.6-11.4 13.2-19.6 21.1-26.3 39.9-19.2 53.7l2.7 5.2h-7.5c-8.6 0-12.6 1.6-14.9 6-1.9 3.7-1.9 7.3 0 11 3 5.8 3.9 6 27.5 6h21.5l7.5 5.3c10.8 7.6 26.7 17.7 27.8 17.7.5 0 9.9-9.5 20.8-21.1 16.4-17.5 19.5-21.4 18.3-22.3-.8-.6-7.1-5.8-13.9-11.6-9-7.6-11.9-10.6-10.6-10.8 1-.2 15.9-2.7 33.1-5.6l31.3-5.2 2.8 5.8c2.3 4.9 3.2 5.8 4.9 5.4 1.1-.2 8.1-1.6 15.5-3.1s13.9-3 14.4-3.5c.4-.4 0-3.4-1-6.7-1.4-4.4-1.8-9.6-1.9-22.3-.2-17.9-1.5-25.2-6.2-34.4-6.1-12.1-9.8-14.7-23.8-17.1-11.6-2-51.8-2.9-60.5-1.5zM98.5 274.9c-20.8 4.4-38 13.7-52.8 28.8-8.5 8.7-12.7 14.6-18.3 25.5C5.5 372.6 16.9 424.6 55 455.3c31.2 25.1 77 29.2 111.9 10.1 18.6-10.2 35.8-28 43.4-45l1.8-4-3.5-5.3c-2-2.9-4.1-7-4.7-9.2l-1.2-3.9-2.7 6.9c-13 33.3-42 54.8-77 56.8-48.9 2.8-91.1-37.2-91-86.4.1-35 22.4-68 54.2-80.3 12.1-4.7 19.1-6 32.3-6 14.2 0 24.7 2.2 36.2 7.5 4.2 1.9 7.9 3.5 8.3 3.5.4 0 2.6-2.7 4.9-6l4.2-6-3.3-2c-5.1-3.1-16.5-7.6-25.3-10-11.6-3.1-32.7-3.6-45-1.1zm279-.9c-7.6 1.5-10.5 2.4-10.5 3.5 0 .5.9 3.8 2.1 7.3l2.1 6.3 4.2-.8c2.2-.4 11.1-.8 19.6-.7 14.7 0 16 .2 25 3.2 23.3 7.8 41.5 24 51.9 46.4 6.3 13.3 7.5 19.2 7.5 35.8.1 12.1-.3 15.8-2.2 22.3-6.1 21.4-18.3 38.3-36 50.1-34.8 23.1-80.1 18.1-109.7-11.9-8.7-8.8-12.8-15.1-18-27.2-10.9-25.4-8-56.9 7.4-80.4 6.2-9.4 18.6-21.3 27.9-26.9 4-2.3 7.2-4.6 7.2-5 0-1-3.8-11.8-4.5-13.1-.4-.6-3.2.4-7.2 2.6-24.7 13.6-42.7 36.7-50.1 64.5-2.1 8-2.5 11.9-2.6 24.5-.1 15.2.5 19.5 4.6 32.5 8.6 27 30.8 51.3 56.6 62.1 13.8 5.7 25.2 8 39.7 8.1 14.5.1 23.9-1.5 36.8-6.3 42.7-15.5 71-60.9 65.9-105.7-2.9-25.1-13.1-46.1-30.8-63.3-13.1-12.7-27-20.6-44.7-25.5-7.3-2-12.1-2.6-23.2-2.9-7.7-.2-16.2 0-19 .5z"/><path d="m180.1 304-4.3 6.1 6.5 6.9c13.4 14.1 22.7 36 22.7 53.2v5.1l3.1-4.6c2.9-4.3 7.1-8.6 10.4-10.5 1.3-.6 1.2-1.9-.5-8.9-2.6-10.9-8.4-24.1-14.8-33.6-5.3-7.7-16.1-19.7-18-19.7-.5 0-2.8 2.7-5.1 6zm40.6 58.7c-1.7 3.1-3.9 14.7-3.3 17.6.7 3.8 3.7 8.1 6.6 9.7 1.1.6 12.4 4.2 25.2 8 18 5.3 23.5 6.7 24.4 5.7 1.5-1.6 6.4-18.6 6.4-21.9 0-4.2-3.8-7.6-13.5-11.9-8.6-3.9-9.2-4-19.5-3.9-7.9.1-12.3-.4-17.7-1.9-8.3-2.4-8-2.4-8.6-1.4z"/></svg>