<svg version="1.0" xmlns="http://www.w3.org/2000/svg" width="1706.667" height="950.667" viewBox="0 0 1280 713"><path d="M748.2 1c-12.5 1-18.3 3.5-22.6 9.6-4.1 6.1-4.6 12.1-1.2 17.8 3.4 5.8 10.5 11.9 15.5 13.5 6.8 2 23.3 3 49.6 3.1 28.1 0 46 1.2 52.1 3.5 3.9 1.5 4.5 2.3 8.7 10.9 5.5 11.3 17.7 41.9 18.4 46.2l.5 3.1-8.8.7c-21.4 1.6-115.9 2.6-257 2.6h-152l-8.7-17.8c-4.8-9.7-8.7-18.2-8.7-18.8 0-1.5 6.3-2.7 40.5-7.3 39-5.4 50.9-7.9 61.2-12.7 9.6-4.6 11.6-9.9 6.1-15.9-6.4-6.8-19.5-8.1-91.3-9-49-.7-82.8.3-90 2.7-5.7 1.9-6.8 5.7-6.2 22.3.8 23.6 3.1 25.4 28 22.1 8.8-1.1 9.9-1.1 10.6.3.5.9 6.8 12.8 14 26.4 12.2 23 13.1 25 11.8 27-25.8 40.3-86.1 131.7-86.9 131.7-.5 0-7.8-1.8-16.1-4-30.7-8-53.1-11-82.1-11-34.7 0-70.5 6.6-92.5 17-32.3 15.4-73.2 46.3-90.4 68.2-23.7 30.4-39.6 66-47.9 107.3C.2 453.3-.8 486.9.9 502.1 8.2 565 41.4 624 92 663.6c24.8 19.5 57.8 34.9 97.5 45.5 14.8 4 63.9 3.6 88.7-.6 11.5-2 26.5-6.5 41.8-12.6 22.5-9.1 38.3-18.3 55-32.2 10.7-8.9 37.7-36.2 48.3-48.7 23.9-28.4 38.2-60.6 43.5-97.7 1.6-11.5 1.8-12.2 4.2-12.8 1.4-.4 34.9-.9 74.6-1.2l72.1-.5.6 22.2c.7 27.7-.2 65.2-1.6 66.2-.6.4-3.1.4-5.6.1-6.4-.7-22.9 1.3-25.7 3.2-2 1.3-2.4 2.4-2.4 6.6 0 4.2.5 5.5 2.8 7.9 4 3.9 12 5.4 25.2 4.7 10.2-.6 27.9-3.2 29-4.3.3-.3.7-24.7 1-54.3l.5-53.7 25.1-31.4c13.8-17.3 55.8-70.4 93.4-118 83.2-105.2 109.7-138.2 132.8-165l3-3.5 2.8 2.5c4.5 4.1 20.7 39.7 28 61.6 1.8 5.5 3.9 13.4 4.5 17.6 1.5 10.4.6 12.2-9.4 17.4-18.2 9.5-48.8 39.8-70.7 70-21.8 30-40.1 87.6-40 125.8.1 47.7 31.1 124.5 64.3 159.2 36.9 38.7 86.5 64.9 138.7 73 16 2.5 49 2.5 65 .1 33.8-5.3 66.4-17.8 95.3-36.6 14.6-9.6 22.2-15.9 35.3-29.3 11.8-12.1 18.4-19.7 25.4-29.3 22.2-30.2 36.3-61.2 40.9-89.1 6-37.1 5-85.9-2.4-109.2-6-19.1-19-46-30.8-63.9-19-28.8-46.5-55.9-74-73-20.3-12.5-45.9-23.2-67.9-28.2-24-5.5-38.4-6.3-83-4.6-20 .8-37.7 1.5-39.4 1.5-3.1 0-3.2-.2-7.9-12.3-2.6-6.7-15.4-38.8-28.5-71.2C894.5 47.8 880.7 16 873.8 7.5 868.3.8 866.9.7 809.5.4c-28-.1-55.7.2-61.3.6zm78.5 157.9c13.2 1.1 20.3 2.6 20.3 4.2 0 4-39.5 57.2-80.7 108.6-8.8 10.9-23.3 29.2-32.3 40.8-14.7 18.8-87.5 108-92.1 113-1.9 1.9-1.9 1.2-1.9-27.3V369h5.8c13.6 0 25-3.8 27.8-9.2 3.3-6.4-.3-12.4-9-15-4-1.2-44.2-1.5-45.4-.4-.2.3.1 19 .7 41.7.7 22.6 1.1 41.3.9 41.5-.3.3-54.1-104.6-123-239.9L482 156.8l166.3.5c102.5.3 170.9.9 178.4 1.6zm-375.8 44.3c5.9 9.4 70.9 124 100.3 176.8 22.5 40.4 38.7 72 37 72-8 .3-74.7-.2-94.3-.6l-26.5-.7-2.2-9.2c-11.3-47.6-40-96.7-85.5-146.2L373 288l10.8-17.7c6-9.8 20.2-33.3 31.7-52.2l20.9-34.4 4 4.6c2.3 2.5 7 9.2 10.5 14.9zm614 90.3c12.3.8 26.9 2.4 32.5 3.6 12.5 2.5 28 8.6 39.8 15.6 25.7 15.2 59 48 74.8 73.8 6 9.6 17.4 33.7 19.9 41.8 3.4 11.3 5 23.1 6.2 46.8 1.5 31.5-.4 44.5-9.7 66.4-9 21.3-20.4 38.4-42.8 64.3-24.7 28.5-63.1 50.2-103.8 58.7-15.4 3.3-41 4.4-56.8 2.6-20.5-2.4-42.1-9.1-62.1-19.2-52.8-26.8-89.9-74.5-102-131.5-2.1-9.5-2.4-13.7-2.4-32.9 0-22.6.3-25 5.1-47 3.4-15.2 7.7-28.1 13.9-41.1 9-19.1 18.3-31.4 39.9-52.9 15.9-15.8 20.9-19.8 27.7-22.1 3.7-1.3 4.5-1.3 7.7.3 5.6 2.7 8.5 7.9 18.6 32.8 5.1 12.7 15 36.5 21.9 53 6.8 16.5 15 36.3 18.2 44 13.1 31.9 24.1 49.2 32.3 50.8 6.1 1.2 14.1-3.6 16.9-10.1 5.7-13.4 2.7-29.6-11-60.2-9.5-21.5-11.9-27.1-21.5-52-14.1-36.8-28.2-77-28.2-80.7 0-1.8 4.3-4.4 9.8-6 5.4-1.5 20.1-1.2 55.1 1.2zm-798 8c11.7 1.7 28.1 5.4 37.9 8.6l6.3 2.1-3.2 5.6c-4.7 8.4-25.8 41.3-51 79.7-37.5 56.9-49.1 76.7-51.9 88.4-1.1 4.8-1.1 5.5.7 7.9 2.9 3.9 8.9 6.9 16.3 8.1 4.2.7 40.1 1.1 102.9 1.1h96.4l-.7 7.2c-1 11.2-4.5 26.3-8.7 38.2-11 30.7-31.2 56.1-59.9 74.9-26.8 17.5-66.2 30.3-104 33.8-67.7 6.1-133.3-25.1-169.6-80.6-29.4-45.1-38-109-21.4-158.7 11.8-35.2 38.3-67.9 72-88.9 26.1-16.2 57.3-26.1 92-29.3 8.1-.7 35 .4 45.9 1.9zm113.2 59c15 17.1 24.4 32.9 30.8 52 2.9 8.9 6.3 24.2 7.5 34.1l.6 5.1-40.7.7c-22.5.3-55 .9-72.3 1.2l-31.4.7 1.5-2.4c.8-1.3 18.1-28.8 38.4-61.1l36.8-58.7 10.2 9.5c5.6 5.2 13.9 13.7 18.6 18.9z"/></svg>