<svg height="512" width="512" xmlns="http://www.w3.org/2000/svg"><path d="M154.217 299.077a312.363 312.363 0 0 1-6.555-2.392v-35.084c5.522 1.322 8.813 4.114 9.106 4.369a7.42 7.42 0 0 0 10.01-10.954c-.422-.389-7.51-6.776-19.116-8.517v-7.165a7.42 7.42 0 0 0-14.838 0v7.735a44.844 44.844 0 0 0-3.36.866c-10.613 3.197-18.543 12.28-20.696 23.704-1.962 10.416 1.374 20.46 8.709 26.213 3.886 3.048 8.723 5.84 15.348 8.789v44.485c-5.731-.422-9.701-1.821-16.206-6.077a7.419 7.419 0 1 0-8.123 12.417c9.484 6.204 15.964 8.054 24.329 8.525v8.023a7.42 7.42 0 0 0 14.838 0v-8.613c16.645-3.266 26.368-16.991 28.523-29.812 2.769-16.483-5.853-30.815-21.969-36.512zm-27.585-12.9c-2.958-2.321-4.217-6.838-3.284-11.79.836-4.437 3.765-9.768 9.475-11.924v27.671c-2.33-1.264-4.437-2.582-6.191-3.957zm34.919 46.953c-1.142 6.792-5.872 13.991-13.89 16.86v-37.499c.535.192 1.059.382 1.61.577 13.71 4.845 12.866 16.58 12.28 20.062z"/><path d="M511.591 289.53a17.235 17.235 0 0 0-10.935-12.529l-21.235-7.805a7.419 7.419 0 1 0-5.118 13.927l21.235 7.805c1.105.406 1.453 1.296 1.561 1.79.109.494.167 1.447-.667 2.28L306.877 484.554c-.835.835-1.789.775-2.281.667-.494-.109-1.383-.456-1.789-1.563l-26.639-72.479a17.285 17.285 0 0 0-10.277-10.276l-72.478-26.638c-1.106-.407-1.453-1.296-1.562-1.79s-.167-1.447.666-2.28l189.557-189.556c.834-.834 1.785-.775 2.28-.667.494.109 1.383.456 1.789 1.562l26.638 72.478a17.28 17.28 0 0 0 10.278 10.277l18.434 6.775c3.846 1.415 8.11-.558 9.523-4.404s-.558-8.11-4.405-9.523l-18.435-6.776a2.464 2.464 0 0 1-1.466-1.467l-26.638-72.478a17.235 17.235 0 0 0-12.528-10.935 17.237 17.237 0 0 0-15.962 4.666l-7.176 7.176v-73.606c0-9.545-7.766-17.311-17.311-17.311h-75.564c6.913-13.44 4.753-30.378-6.493-41.623a35.658 35.658 0 0 0-36.099-8.791c-4.831-14.014-18.143-24.114-33.777-24.114-15.633 0-28.944 10.098-33.776 24.11-12.508-4.007-26.456-.85-36.099 8.794-6.748 6.747-10.464 15.718-10.464 25.261a35.552 35.552 0 0 0 3.958 16.362h-6.224a7.42 7.42 0 0 0 0 14.838h52.87v70.219a139.43 139.43 0 0 0-24.965-2.267c-15.464 0-30.016 2.41-43.942 7.048l-55.762.002v-72.529a2.475 2.475 0 0 1 2.473-2.473h33.825a7.42 7.42 0 0 0 0-14.838H43.229c-9.545 0-17.311 7.766-17.311 17.311V228.3c0 .045.006.089.007.135C9.605 251.381 0 279.418 0 309.656c0 30.17 9.462 58.944 27.363 83.212a7.408 7.408 0 0 0 5.976 3.015 7.418 7.418 0 0 0 5.964-11.824c-16.006-21.698-24.466-47.427-24.466-74.404 0-69.268 56.354-125.621 125.622-125.621 58.06 0 107.971 39.116 121.92 95.314l-12.56 12.56c-3.757-23.326-14.875-44.809-32.117-61.599-20.82-20.272-48.252-31.437-77.243-31.437-61.086 0-110.784 49.697-110.784 110.783s49.697 110.784 110.784 110.784c25.212 0 49.632-8.629 69.252-24.375l15.902 5.844c-23.117 21.319-53.577 33.369-85.154 33.369-28.66 0-56.713-9.949-78.991-28.013a7.42 7.42 0 0 0-9.345 11.526c24.912 20.201 56.284 31.326 88.336 31.326 37.819 0 74.2-15.449 100.592-42.534l19.721 7.248a2.467 2.467 0 0 1 1.467 1.468l26.638 72.478a17.235 17.235 0 0 0 12.527 10.935c1.25.275 2.508.41 3.754.41a17.23 17.23 0 0 0 12.209-5.076L506.924 305.49a17.236 17.236 0 0 0 4.667-15.96zM40.756 210.824v-19.739h24.486a141.444 141.444 0 0 0-24.486 19.739zm308.811-107.107v72.529h-124.67v-75.002h122.197a2.476 2.476 0 0 1 2.473 2.473zm-95.021-48.442c8.143 8.144 8.143 21.395.001 29.537-.325.326-.956.866-2.051 1.594h-36.147c10.769-20.257 13.561-30.169 14.282-35.149a20.844 20.844 0 0 1 23.915 4.018zm-59.385-28.559c11.517 0 20.887 9.37 20.887 20.886 0 2.144-1.22 11.236-16.599 38.803h-8.575c-15.376-27.56-16.599-36.655-16.599-38.803 0-11.516 9.369-20.886 20.886-20.886zm-59.383 58.097c-3.945-3.945-6.118-9.19-6.118-14.769s2.173-10.824 6.118-14.769c6.376-6.376 15.964-7.906 23.914-4.014.722 4.982 3.512 14.889 14.281 35.145h-36.145c-1.095-.727-1.724-1.267-2.05-1.593zm44.485 16.431h29.796v75.002H184.37c-.033 0-.064.004-.097.005-1.33-.438-2.668-.85-4.01-1.248zm47.984 98.836a139.39 139.39 0 0 0-12.59-8.995h133.911v1.076l-28.72 28.72h-71.645a141.01 141.01 0 0 0-20.956-20.801zm31.552 35.639h46.21l-31.618 31.618a140.53 140.53 0 0 0-14.592-31.618zM140.46 405.602c-52.905 0-95.945-43.041-95.945-95.945s43.041-95.945 95.945-95.945c50.931 0 93.616 41.008 95.846 91.712l-54.28 54.28c-4.197 4.197-5.942 10.164-4.666 15.961s5.364 10.48 10.935 12.528l4.677 1.719a95.79 95.79 0 0 1-52.512 15.69z"/><path d="M363.781 395.1c.934 0 1.886-.178 2.804-.554a7.418 7.418 0 0 0 4.06-9.675l-42.718-104.504a7.417 7.417 0 0 0-9.675-4.06 7.418 7.418 0 0 0-4.06 9.675l42.718 104.504a7.422 7.422 0 0 0 6.871 4.614zm-88.205-83.795c-5.198 5.198-7.74 12.336-7.158 20.099.551 7.344 3.879 14.414 9.37 19.905 5.492 5.492 12.561 8.82 19.906 9.37.728.055 1.451.082 2.167.082 6.918 0 13.221-2.53 17.932-7.24 5.198-5.198 7.74-12.336 7.158-20.099-.551-7.345-3.879-14.414-9.37-19.906-5.492-5.492-12.561-8.82-19.906-9.37-7.769-.585-14.902 1.961-20.099 7.159zm29.513 12.704c2.981 2.982 4.781 6.719 5.066 10.523.254 3.385-.76 6.403-2.855 8.498-2.094 2.094-5.115 3.104-8.497 2.854-3.804-.285-7.541-2.084-10.523-5.066-2.981-2.982-4.781-6.719-5.066-10.522-.254-3.385.76-6.403 2.855-8.498 1.883-1.883 4.512-2.892 7.485-2.892.333 0 .671.013 1.012.038 3.804.284 7.541 2.083 10.523 5.065-.001 0-.001 0 0 0zm86.822 45.359c6.919 0 13.222-2.53 17.932-7.24 10.419-10.419 9.427-28.365-2.211-40.005h-.001c-11.638-11.639-29.584-12.63-40.004-2.212-10.419 10.419-9.427 28.365 2.212 40.004 5.492 5.492 12.561 8.82 19.906 9.37.729.056 1.451.083 2.166.083zm-13.791-38.964c1.965-1.965 4.63-2.918 7.496-2.918 3.891 0 8.152 1.759 11.523 5.13 5.854 5.854 6.846 14.387 2.211 19.021-2.094 2.093-5.113 3.107-8.496 2.854-3.804-.285-7.542-2.084-10.523-5.066-5.853-5.855-6.845-14.387-2.211-19.021z"/></svg>